<svg viewBox="0 0 1033 400" xmlns="http://www.w3.org/2000/svg"><g><g><g><g><g><line x1="68.3125" y1="377" x2="63.3125" y2="377" style="visibility: inherit;" fill="rgb(0, 0, 0)" stroke="rgb(204, 204, 204)" stroke-width="1px"></line><line x1="68.3125" y1="339.3" x2="63.3125" y2="339.3" style="visibility: inherit;" fill="rgb(0, 0, 0)" stroke="rgb(204, 204, 204)" stroke-width="1px"></line><line x1="68.3125" y1="301.6" x2="63.3125" y2="301.6" style="visibility: inherit;" fill="rgb(0, 0, 0)" stroke="rgb(204, 204, 204)" stroke-width="1px"></line><line x1="68.3125" y1="263.9" x2="63.3125" y2="263.9" style="visibility: inherit;" fill="rgb(0, 0, 0)" stroke="rgb(204, 204, 204)" stroke-width="1px"></line><line x1="68.3125" y1="226.2" x2="63.3125" y2="226.2" style="visibility: inherit;" fill="rgb(0, 0, 0)" stroke="rgb(204, 204, 204)" stroke-width="1px"></line><line x1="68.3125" y1="188.5" x2="63.3125" y2="188.5" style="visibility: inherit;" fill="rgb(0, 0, 0)" stroke="rgb(204, 204, 204)" stroke-width="1px"></line><line x1="68.3125" y1="150.8" x2="63.3125" y2="150.8" style="visibility: inherit;" fill="rgb(0, 0, 0)" stroke="rgb(204, 204, 204)" stroke-width="1px"></line><line x1="68.3125" y1="113.10000000000002" x2="63.3125" y2="113.10000000000002" style="visibility: inherit;" fill="rgb(0, 0, 0)" stroke="rgb(204, 204, 204)" stroke-width="1px"></line><line x1="68.3125" y1="75.39999999999998" x2="63.3125" y2="75.39999999999998" style="visibility: inherit;" fill="rgb(0, 0, 0)" stroke="rgb(204, 204, 204)" stroke-width="1px"></line><line x1="68.3125" y1="37.69999999999999" x2="63.3125" y2="37.69999999999999" style="visibility: inherit;" fill="rgb(0, 0, 0)" stroke="rgb(204, 204, 204)" stroke-width="1px"></line><line x1="68.3125" y1="0" x2="63.3125" y2="0" style="visibility: inherit;" fill="rgb(0, 0, 0)" stroke="rgb(204, 204, 204)" stroke-width="1px"></line></g><g transform="translate(58.3125, 0)"><text x="0" y="377" dx="0em" dy="0.3em" style="text-anchor: end; visibility: hidden; font-family: &quot;Helvetica Neue&quot;, sans-serif; font-size: 12px; font-weight: 200;" fill="rgb(50, 49, 63)" stroke="none" stroke-width="1px">1.2e+4</text><text x="0" y="339.3" dx="0em" dy="0.3em" style="text-anchor: end; visibility: inherit; font-family: &quot;Helvetica Neue&quot;, sans-serif; font-size: 12px; font-weight: 200;" fill="rgb(50, 49, 63)" stroke="none" stroke-width="1px">1.4e+4</text><text x="0" y="301.6" dx="0em" dy="0.3em" style="text-anchor: end; visibility: inherit; font-family: &quot;Helvetica Neue&quot;, sans-serif; font-size: 12px; font-weight: 200;" fill="rgb(50, 49, 63)" stroke="none" stroke-width="1px">1.6e+4</text><text x="0" y="263.9" dx="0em" dy="0.3em" style="text-anchor: end; visibility: inherit; font-family: &quot;Helvetica Neue&quot;, sans-serif; font-size: 12px; font-weight: 200;" fill="rgb(50, 49, 63)" stroke="none" stroke-width="1px">1.8e+4</text><text x="0" y="226.2" dx="0em" dy="0.3em" style="text-anchor: end; visibility: inherit; font-family: &quot;Helvetica Neue&quot;, sans-serif; font-size: 12px; font-weight: 200;" fill="rgb(50, 49, 63)" stroke="none" stroke-width="1px">2e+4</text><text x="0" y="188.5" dx="0em" dy="0.3em" style="text-anchor: end; visibility: inherit; font-family: &quot;Helvetica Neue&quot;, sans-serif; font-size: 12px; font-weight: 200;" fill="rgb(50, 49, 63)" stroke="none" stroke-width="1px">2.2e+4</text><text x="0" y="150.8" dx="0em" dy="0.3em" style="text-anchor: end; visibility: inherit; font-family: &quot;Helvetica Neue&quot;, sans-serif; font-size: 12px; font-weight: 200;" fill="rgb(50, 49, 63)" stroke="none" stroke-width="1px">2.4e+4</text><text x="0" y="113.10000000000002" dx="0em" dy="0.3em" style="text-anchor: end; visibility: inherit; font-family: &quot;Helvetica Neue&quot;, sans-serif; font-size: 12px; font-weight: 200;" fill="rgb(50, 49, 63)" stroke="none" stroke-width="1px">2.6e+4</text><text x="0" y="75.39999999999998" dx="0em" dy="0.3em" style="text-anchor: end; visibility: inherit; font-family: &quot;Helvetica Neue&quot;, sans-serif; font-size: 12px; font-weight: 200;" fill="rgb(50, 49, 63)" stroke="none" stroke-width="1px">2.8e+4</text><text x="0" y="37.69999999999999" dx="0em" dy="0.3em" style="text-anchor: end; visibility: inherit; font-family: &quot;Helvetica Neue&quot;, sans-serif; font-size: 12px; font-weight: 200;" fill="rgb(50, 49, 63)" stroke="none" stroke-width="1px">3e+4</text><text x="0" y="0" dx="0em" dy="0.3em" style="text-anchor: end; visibility: hidden; font-family: &quot;Helvetica Neue&quot;, sans-serif; font-size: 12px; font-weight: 200;" fill="rgb(50, 49, 63)" stroke="none" stroke-width="1px">3.2e+4</text></g><line x1="68.3125" y1="0" x2="68.3125" y2="377" fill="rgb(0, 0, 0)" stroke="rgb(204, 204, 204)" stroke-width="1px"></line></g></g><g transform="translate(68, 0)" clip-path="url(#clip_0)"><clipPath id="clip_0"><rect width="964" height="377"></rect></clipPath><g><g><g><line x1="0" y1="0" x2="0" y2="377" fill="rgb(0, 0, 0)" stroke="rgb(60, 60, 60)" stroke-width="1px" opacity="0.25"></line><line x1="87.69886363636364" y1="0" x2="87.69886363636364" y2="377" fill="rgb(0, 0, 0)" stroke="rgb(60, 60, 60)" stroke-width="1px" opacity="0.25"></line><line x1="175.39772727272728" y1="0" x2="175.39772727272728" y2="377" fill="rgb(0, 0, 0)" stroke="rgb(60, 60, 60)" stroke-width="1px" opacity="0.25"></line><line x1="263.0965909090909" y1="0" x2="263.0965909090909" y2="377" fill="rgb(0, 0, 0)" stroke="rgb(60, 60, 60)" stroke-width="1px" opacity="0.25"></line><line x1="350.79545454545456" y1="0" x2="350.79545454545456" y2="377" fill="rgb(0, 0, 0)" stroke="rgb(60, 60, 60)" stroke-width="1px" opacity="0.25"></line><line x1="438.4943181818182" y1="0" x2="438.4943181818182" y2="377" fill="rgb(0, 0, 0)" stroke="rgb(60, 60, 60)" stroke-width="1px" opacity="0.25"></line><line x1="526.1931818181818" y1="0" x2="526.1931818181818" y2="377" fill="rgb(0, 0, 0)" stroke="rgb(60, 60, 60)" stroke-width="1px" opacity="0.25"></line><line x1="613.8920454545455" y1="0" x2="613.8920454545455" y2="377" fill="rgb(0, 0, 0)" stroke="rgb(60, 60, 60)" stroke-width="1px" opacity="0.25"></line><line x1="701.5909090909091" y1="0" x2="701.5909090909091" y2="377" fill="rgb(0, 0, 0)" stroke="rgb(60, 60, 60)" stroke-width="1px" opacity="0.25"></line><line x1="789.2897727272727" y1="0" x2="789.2897727272727" y2="377" fill="rgb(0, 0, 0)" stroke="rgb(60, 60, 60)" stroke-width="1px" opacity="0.25"></line><line x1="876.9886363636364" y1="0" x2="876.9886363636364" y2="377" fill="rgb(0, 0, 0)" stroke="rgb(60, 60, 60)" stroke-width="1px" opacity="0.25"></line><line x1="964.6875" y1="0" x2="964.6875" y2="377" fill="rgb(0, 0, 0)" stroke="rgb(60, 60, 60)" stroke-width="1px" opacity="0.25"></line></g><g><line x1="0" y1="377" x2="964.6875" y2="377" fill="rgb(0, 0, 0)" stroke="rgb(60, 60, 60)" stroke-width="1px" opacity="0.25"></line><line x1="0" y1="339.3" x2="964.6875" y2="339.3" fill="rgb(0, 0, 0)" stroke="rgb(60, 60, 60)" stroke-width="1px" opacity="0.25"></line><line x1="0" y1="301.6" x2="964.6875" y2="301.6" fill="rgb(0, 0, 0)" stroke="rgb(60, 60, 60)" stroke-width="1px" opacity="0.25"></line><line x1="0" y1="263.9" x2="964.6875" y2="263.9" fill="rgb(0, 0, 0)" stroke="rgb(60, 60, 60)" stroke-width="1px" opacity="0.25"></line><line x1="0" y1="226.2" x2="964.6875" y2="226.2" fill="rgb(0, 0, 0)" stroke="rgb(60, 60, 60)" stroke-width="1px" opacity="0.25"></line><line x1="0" y1="188.5" x2="964.6875" y2="188.5" fill="rgb(0, 0, 0)" stroke="rgb(60, 60, 60)" stroke-width="1px" opacity="0.25"></line><line x1="0" y1="150.8" x2="964.6875" y2="150.8" fill="rgb(0, 0, 0)" stroke="rgb(60, 60, 60)" stroke-width="1px" opacity="0.25"></line><line x1="0" y1="113.10000000000002" x2="964.6875" y2="113.10000000000002" fill="rgb(0, 0, 0)" stroke="rgb(60, 60, 60)" stroke-width="1px" opacity="0.25"></line><line x1="0" y1="75.39999999999998" x2="964.6875" y2="75.39999999999998" fill="rgb(0, 0, 0)" stroke="rgb(60, 60, 60)" stroke-width="1px" opacity="0.25"></line><line x1="0" y1="37.69999999999999" x2="964.6875" y2="37.69999999999999" fill="rgb(0, 0, 0)" stroke="rgb(60, 60, 60)" stroke-width="1px" opacity="0.25"></line><line x1="0" y1="0" x2="964.6875" y2="0" fill="rgb(0, 0, 0)" stroke="rgb(60, 60, 60)" stroke-width="1px" opacity="0.25"></line></g></g></g><g><g><line x1="0" y1="603.2" x2="964.6875" y2="603.2" fill="rgb(0, 0, 0)" stroke="rgb(153, 153, 153)" stroke-width="1.5px"></line></g></g><g><g><line x1="0" y1="0" x2="0" y2="377" fill="rgb(0, 0, 0)" stroke="rgb(153, 153, 153)" stroke-width="1.5px"></line></g></g><g><g><g><g><g><path stroke="rgb(255, 112, 67)" stroke-width="2px" d="M32.097784090909094,67.13990791015635L34.37795454545455,54.03706833034221L35.43034090909091,56.14958952420818L38.23670454545454,61.537454553092005L38.5875,62.64692822958364L39.11369318181818,67.31822904653558L39.46448863636363,75.34368956217287L40.516875000000006,74.73388492137923L41.043068181818185,74.99682488143196L43.67403409090909,75.7637903123628L44.024829545454544,69.55828847728225L44.200227272727275,66.75529014764157L45.07721590909091,67.1402183964608L46.480397727272724,70.05889031611207L47.708181818181814,77.29027167788058L49.111363636363635,77.1441242633233L49.63755681818182,82.0868974650935L49.812954545454545,79.93982930700099L51.04073863636364,84.623028822977L51.91772727272728,86.18088038258969L53.32090909090909,84.94564242360264L55.601079545454546,83.5742267463163L57.53045454545454,81.35236664978663L58.40744318181819,79.48973352050456L58.93363636363637,79.5041097605926L60.51221590909091,79.90050789439215L60.68761363636364,77.53819199551862L62.44159090909091,73.28104355178738L63.31857954545454,76.64019833595648L63.669375,82.37484284952006L63.84477272727272,77.235877940926L64.54636363636364,70.9386241446906L65.94954545454546,67.75288023866568L67.35272727272728,72.92812431731289L67.528125,76.30999113077957L68.40511363636364,84.60381728557962L70.33448863636363,88.39903946020735L71.386875,92.51293931221448L72.26386363636364,94.18992517442155L72.79005681818182,94.95540440600837L74.89482954545456,93.57942127960433L75.94721590909091,98.00435842159834L76.82420454545453,104.00079361462053L77.35039772727274,99.516334696787L78.05198863636363,101.76380028151453L78.75357954545454,98.41167594205535L79.104375,95.87421607576732L82.43693181818182,92.62617843785125L83.31392045454545,89.68326174153776L83.48931818181819,88.79909639047838L84.36630681818181,89.49687114151652L85.24329545454546,94.45607114885314L85.59409090909091,97.38777535398702L86.99727272727273,100.75972169496504L87.17267045454545,94.22949467655667L88.40045454545455,94.06202372281797L89.10204545454546,98.87788831560437L90.680625,95.16080799735494L92.08380681818183,92.80045038676161L94.89017045454545,93.21354558382967L95.59176136363637,93.7774276414849L96.64414772727272,95.26730624294163L97.34573863636363,90.0444846929775L97.6965340909091,100.35464384944595L99.97670454545455,99.71026569692964L102.78306818181818,101.1733431632411L105.06323863636364,102.6216328837304L105.23863636363636,100.01514100877654L105.58943181818182,97.70031711467453L106.64181818181818,100.16528014881925L108.22039772727274,98.09872377092194L108.57119318181819,100.39278254572201L108.74659090909091,104.11829376016527L109.2727840909091,108.2399593313969L110.32517045454546,112.30045482565009L111.90375,117.73003536971908L112.42994318181819,112.6420623425256L112.6053409090909,107.76317051926532L114.35931818181818,112.90955401614292L117.34107954545455,109.70820300496968L117.691875,107.36948780402497L120.14744318181818,104.17729610786728L121.02443181818182,107.53859483685699L121.37522727272729,110.52064328958028L121.90142045454546,108.97792008524078L123.30460227272728,115.86114956226498L124.35698863636364,119.91306601168918L124.70778409090909,118.07873993302218L125.23397727272726,116.07256381233242L126.28636363636365,112.67641342483847L127.16335227272727,115.22759460608421L128.91732954545455,115.58235591480167L129.9697159090909,119.52035063340259L131.02210227272727,117.81388051856703L131.7236931818182,113.81356643141481L132.77607954545454,122.39502622019575L133.126875,124.16593789097982L133.30227272727274,123.79820914034906L133.65306818181818,114.91681724590381L134.00386363636363,110.72999607011252L134.17926136363636,114.54144195276217L135.05625,122.00407552603207L135.23164772727273,125.2252843555274L136.81022727272727,123.94976926114145L137.86261363636362,127.00428503056693L138.2134090909091,130.0686409366508L139.09039772727274,133.70904787187408L139.96738636363636,133.4271377595685L140.3181818181818,136.70711665427672L142.42295454545456,125.60689338879607L143.65073863636363,115.51942370546601L143.82613636363635,112.8779482564272L144.17693181818183,117.95241797104683L144.52772727272728,124.36398731056852L144.703125,134.03352262283357L145.05392045454545,133.60695540827857L147.15869318181817,135.39801156005L147.68488636363637,136.93588322193142L148.3864772727273,127.56901860166894L148.91267045454546,131.9678871446926L149.43886363636364,127.17084646150758L150.14045454545453,130.04345630595895L150.31585227272728,136.65975753204492L151.01744318181818,133.3949972997802L151.89443181818183,131.57375742375302L152.06982954545455,126.4588343651728L153.82380681818182,129.8117134865022L154.52539772727272,131.3482372852589L155.0515909090909,131.92431258159434L156.4547727272727,127.54414350881416L157.15636363636364,131.01462368856272L157.68255681818184,127.56859982111635L157.85795454545453,129.1228010888204L158.03335227272726,126.396366661852L159.26113636363635,125.16740206260084L160.31352272727273,122.45690972127838L160.66431818181817,116.72131743666387L160.8397159090909,114.4775331996625L161.54130681818182,123.34849256678777L162.24289772727272,126.66535139704922L162.76909090909092,123.55101250062052L162.94448863636362,116.04355626934586L163.11988636363637,115.0857003435151L163.82147727272726,116.68594272862106L165.4000568181818,120.69058469846772L166.10164772727273,126.5750928094188L166.27704545454546,123.74206026483984L166.45244318181818,126.08952282187758L166.80323863636363,127.75564448653728L166.97863636363638,121.30228584073342L168.03102272727273,119.03812723215174L168.73261363636362,120.79987927040884L168.90801136363638,119.75011682807292L169.25880681818182,122.48149194550038L169.60960227272727,121.02052908627576L170.13579545454544,121.6252503971684L170.31119318181817,121.1130963873936L170.48659090909092,122.3700242290981L170.66198863636365,124.7899634170135L171.18818181818182,126.73653982244022L171.88977272727274,127.14831097798225L172.76676136363636,131.0158148195804L172.9421590909091,132.82281459371933L173.1175568181818,131.72248513415084L174.16994318181818,133.93634426344715L177.15170454545452,129.37334633974174L177.85329545454545,128.99757358311572L178.20409090909092,130.6720457390101L179.08107954545454,136.74899236449394L183.290625,135.1968092422401L183.64142045454545,133.52898630316832L183.81681818181818,127.87416238112647L184.51840909090907,130.70082904934986L184.86920454545455,131.92145713335435L185.57079545454548,134.4962453211648L185.9215909090909,130.554099450723L187.32477272727272,133.43801236514673L188.3771590909091,129.92176705334248L189.07875,121.231647180886L190.30653409090908,118.47711432738538L190.65732954545456,127.23223544976335L191.7097159090909,129.6631288432367L192.06051136363638,132.50760237807964L192.58670454545455,122.56670059558547L192.76210227272728,123.61112683437275L193.11289772727272,128.48093691077972L194.51607954545455,130.03144519252226L194.69147727272727,126.73036329157335L195.21767045454544,126.7107185048686L196.44545454545454,126.55223677406016L196.97164772727274,129.10647980287308L198.55022727272728,132.88845509806723L199.25181818181818,127.72718446031016L199.77801136363638,131.88990664966218L199.9534090909091,135.07863216588484L201.53198863636362,135.1223297824083L201.70738636363635,130.87577159922662L202.40897727272727,131.86999670406928L202.584375,137.75902221799018L202.75977272727275,133.7601280600963L202.93517045454544,137.49407185889436L203.63676136363634,143.3342124081852L203.8121590909091,144.29345424812934L204.33835227272726,143.5195891382537L204.51375,142.13941620208595L205.9169318181818,135.99512658915583L206.61852272727273,140.36071515937627L206.96931818181818,140.7373514450401L207.32011363636363,140.82942569605754L207.49551136363635,151.05602810629736L209.07409090909093,145.14984347043088L209.6002840909091,147.7332531412726L211.0034659090909,147.2975330509411L211.35426136363637,148.91172805912024L212.0558522727273,144.3889588600178L212.23125,144.59560073902287L213.10823863636364,141.39605627270063L214.33602272727273,144.06157185523307L216.26539772727273,136.51398507597156L216.61619318181818,142.2077523829352L217.66857954545455,144.15103428135438L218.19477272727272,142.56076931981522L218.5455681818182,149.68211726168673L219.2471590909091,150.48815197712128L219.94875000000002,147.3238279989124L220.29954545454544,156.85451373559897L221.1765340909091,151.4307639506498L221.35193181818184,158.09239433852107L221.52732954545453,154.687926486571L222.93051136363636,149.48133321671034L223.98289772727273,149.4336488006101L224.68448863636362,151.11143629008888L224.85988636363638,146.80193324891928L225.0352840909091,142.6580646922455L226.61386363636362,153.9912349981743L227.49085227272727,158.74615284415125L229.94642045454546,162.1235417095208L230.2972159090909,161.15293707418638L233.80517045454545,160.03484060973815L233.98056818181817,163.1754093180821L234.6821590909091,160.77861466841662L234.85755681818182,155.86897474354475L235.03295454545454,147.50889391287245L238.19011363636363,147.13707422535563L239.06710227272728,146.3581679499507L240.29488636363635,147.18758177601285L240.4702840909091,143.2961454080484L241.52267045454545,138.55831144352086L241.87346590909092,141.12550661175834L242.75045454545457,141.50714561022897L243.10125,135.4312108634212L243.45204545454544,137.36562971242364L244.15363636363637,132.180390831732L247.31079545454543,127.21583192376906L247.66159090909093,125.52648651508645L248.01238636363635,130.22076172630003L249.41556818181817,128.03335487946438L249.94176136363637,132.46888033895095L251.34494318181817,137.93004347365525L251.87113636363637,138.14220666452107L252.3973295454545,152.80756832109293L254.6775,158.0082510514446L255.90528409090908,158.15286718279046L256.95767045454545,156.06529888759843L257.65926136363635,152.26905423023993L257.8346590909091,150.83585874707114L258.0100568181818,143.16443160493228L258.18545454545455,147.29413788958308L259.2378409090909,147.15747652255183L260.9918181818182,148.21275534202067L261.86880681818184,146.948311874702L262.04420454545453,145.32812011791077L262.57039772727273,151.65345369690385L263.6227840909091,156.9259495974464L263.9735795454545,156.28586964318106L264.4997727272727,158.19878321037572L265.02596590909087,157.90727294561623L265.5521590909091,156.1189876971332L265.7275568181818,146.12837375154766L268.8847159090909,152.73441770834674L270.8140909090909,152.91693352865715L271.5156818181818,156.10493020834295L274.14664772727275,157.54781962240403L274.6728409090909,154.03824625912156L274.8482386363636,160.72544606830024L275.1990340909091,164.31468661899268L275.37443181818185,164.80167232731569L279.05778409090914,170.2527682946246L279.23318181818183,168.30278582386842L280.1101704545455,176.4615854893507L280.6363636363636,178.15181778313564L281.3379545454545,167.00789637543093L281.68874999999997,169.55339908708498L282.3903409090909,164.95171935097537L283.0919318181818,163.44054086239154L283.7935227272727,167.73400081701718L288.1784659090909,165.24220566028495L288.35386363636366,173.1053983610469L290.28323863636365,171.32345014009297L291.6864204545455,166.3168316522821L291.8618181818182,166.34598397475227L292.38801136363634,168.07910360510192L292.73880681818184,166.267153132696L292.91420454545454,165.48322998701036L294.4927840909091,169.3270449811463L295.7205681818182,166.31025733553685L298.35153409090907,170.77692002426883L298.5269318181818,170.98889869055037L299.053125,167.07731252954585L300.28090909090906,165.65965722237965L302.3856818181818,154.5414683460539L303.26267045454546,162.35108393398957L303.4380681818182,162.64378389271928L303.78886363636366,169.1887200051005L305.0166477272727,166.96634474847608L306.2444318181818,168.2082629190171L306.41982954545455,170.563394692102L307.9984090909091,171.19748670898989L308.7,165.33544672021947L309.05079545454544,172.46161954128812L309.7523863636364,178.87096750364964L311.33096590909093,182.07076912614903L312.55875000000003,182.01449252675795L312.7341477272727,177.9547552200099L313.6111363636364,178.64726005224279L315.01431818181817,178.5813118647189L316.5928977272727,188.49840065141728L316.76829545454547,186.4987034150328L317.46988636363636,182.69250639887167L318.346875,187.31878238240026L318.87306818181816,188.78416187562618L319.22386363636366,193.00928988432128L319.7500568181818,205.92031511261058L320.27625,200.99121952052366L320.9778409090909,193.55687127017947L322.38102272727275,183.23363152203538L323.78420454545454,186.4434297722457L324.13500000000005,189.70030197633076L324.48579545454544,189.15302407245923L325.01198863636364,186.6495085670591L325.1873863636364,190.14686477223458L326.23977272727274,181.68663786401657L326.41517045454543,179.67846786800786L327.8183522727272,181.83916784405667L328.5199431818182,184.55971001119815L328.6953409090909,185.89191194701846L328.8707386363636,186.10928912957505L329.2215340909091,185.01880201013884L329.7477272727273,183.8786215621337L330.9755113636364,188.74442861589955L331.1509090909091,190.05460418679584L332.5540909090909,190.35829616619833L332.7294886363636,191.64663286919827L334.30806818181816,191.4534117669436L335.0096590909091,190.98794567573015L335.36045454545456,187.2420599132378L335.53585227272725,190.8297869760568L335.88664772727276,193.52110189351546L336.7636363636364,192.45740863097254L336.9390340909091,190.24165175038917L337.28982954545455,190.29103137064328L337.46522727272725,198.63706229004683L337.640625,201.26487619849289L338.51761363636365,195.17217664860178L340.97318181818184,188.20392244623338L342.55176136363633,190.36519276093898L343.6041477272727,190.36057598547004L344.83193181818183,190.91585612085268L345.0073295454545,186.97355344491226L346.5859090909091,189.88846318696451L347.81369318181817,190.3200923026698L349.3922727272727,184.22216890160527L349.9184659090909,186.52630863960667L351.14625,184.67314204093128L351.49704545454546,183.35246961174474L352.19863636363635,183.6675492578736L353.95261363636365,187.25496240630198L354.12801136363635,182.15808145355982L354.65420454545455,186.73116479216645L355.5311931818182,190.63398046396645L356.2327840909091,187.83844027913713L358.51295454545453,187.62931106343837L358.86375,186.599015800407L359.03914772727273,181.88381251726003L360.0915340909091,184.86393448244448L360.2669318181818,193.36893905128875L360.4423295454546,187.99043118187674L360.793125,192.8932764655327L361.1439204545454,191.02872072812465L363.2486931818182,187.2484271403903L366.40585227272726,188.34386788378492L367.45823863636366,190.0844030478968L368.6860227272727,186.72734739539985L369.7384090909091,192.79412661421486L370.44,189.1271616113405L370.79079545454545,187.3096211928816L371.14159090909095,185.7518168909025L372.1939772727273,190.24586091000148L372.72017045454544,191.16878158795436L373.07096590909094,192.11775066323776L373.5971590909091,191.583311008088L374.1233522727273,188.48176281390607L374.64954545454543,193.27227321603888L376.22812500000003,197.70830290746116L376.5789204545454,196.54727664614674L378.68369318181817,193.58625155547475L378.85909090909087,194.20297919324722L379.0344886363637,196.65930795879137L381.4900568181818,196.7895302317696L382.1916477272727,193.51149354856665L382.89323863636366,196.03013222624259L383.59482954545456,201.84988394992337L383.77022727272725,205.4024006347786L384.29642045454545,207.40280338135867L384.6472159090909,209.53832116028772L384.99801136363635,206.42041288858834L386.4011931818182,205.31914174631572L386.7519886363636,204.469123306634L387.2781818181818,208.0311758164982L387.80437500000005,207.9087927594532L388.3305681818182,202.70518866975397L388.6813636363636,202.73020240054086L389.20755681818184,196.9621909564753L389.73375000000004,192.15718401222276L392.5401136363636,190.96821079515496L393.7678977272727,185.41078684189733L394.6448863636364,185.85729769744867L394.8202840909091,186.98895796958917L394.9956818181818,188.91500804368204L395.34647727272727,185.40504029416095L395.52187499999997,190.76684559769302L395.87267045454547,187.69971709788283L396.2234659090909,185.69149144726293L396.9250568181818,184.83241829657976L397.62664772727277,184.9572211331475L398.50363636363636,188.2116253899332L398.8544318181818,187.56853356874788L400.0822159090909,183.4700464094123L400.43301136363635,187.8155251950708L400.6084090909091,189.1091040720602L401.48539772727275,190.3978566741418L402.18698863636365,188.4548549454815L403.06397727272724,185.37747585404992L403.4147727272727,183.88458560875492L403.5901704545455,178.47342975962914L405.3441477272727,177.5949151980285L405.5195454545455,187.72902738121488L406.22113636363633,193.6209133814545L406.74732954545453,192.90585826876762L407.2735227272727,189.2319469307962L407.4489204545455,190.30480094586426L407.97511363636363,191.66380320632834L408.1505113636363,190.43067301346508L408.50130681818183,183.19891895597655L409.3782954545455,190.17470342215037L409.5536931818182,181.89287879749975L410.7814772727273,183.12216385287485L410.95687499999997,187.0481074536545L411.6584659090909,188.3551139186142L412.00926136363637,188.70459384254082L412.3600568181818,189.0675733940894L413.0616477272727,189.1569913302885L414.815625,189.8376839588702L415.1664204545454,195.7750037087897L415.5172159090909,199.41374094544003L415.69261363636366,195.71400750870214L416.39420454545456,201.23750967341243L416.9203977272727,201.02492951146306L418.32357954545455,201.34253906911857L419.02517045454545,204.89557156324298L421.48073863636364,207.25215311391275L422.1823295454546,205.60042755893525L422.533125,212.32975906474343L423.41011363636363,217.0736676659694L423.5855113636364,213.36824905904274L423.9363068181818,210.1962662314363L424.2871022727273,207.09841015414275L424.4625,203.10466378727133L424.8132954545454,202.59108038129006L425.16409090909093,203.1193857264403L425.3394886363636,207.06339542118522L426.5672727272727,209.33882989706996L427.0934659090909,209.29746551993134L427.9704545454546,208.23185876811348L430.0752272727273,206.14235904957613L430.77681818181816,206.24698597338974L431.30301136363636,212.70242168089686L433.05698863636366,208.4746054697779L434.109375,210.14778238856903L434.28477272727275,210.12035886329144L434.63556818181814,206.3711162642665L435.16176136363634,206.36507606095464L435.68795454545455,214.7336438852099L435.8633522727273,221.21300876727213L436.03875,211.4981698252282L437.7927272727273,209.90157238855326L437.968125,208.73801577831716L438.14352272727274,212.69898425141335L438.4943181818182,205.02519862053728L440.5990909090909,203.88601874444882L440.7744886363637,199.69955144059398L440.9498863636364,207.72831490614547L441.1252840909091,205.35123391534088L442.52846590909087,205.40130657706322L444.10704545454547,204.5027802487069L447.0888068181818,203.83472607272898L449.544375,208.28698477900707L450.2459659090909,205.77657235512473L450.4213636363636,202.32907192177794L450.7721590909091,202.7734503424956L452.1753409090909,199.52247336729317L452.5261363636364,199.2410473329023L453.22772727272724,203.1572164585529L454.98170454545453,205.01381019094185L456.3848863636364,206.8127967335896L456.5602840909091,204.29514771183244L458.48965909090913,211.46546293787011L459.8928409090909,210.16575508898646L460.94522727272727,214.1159438568885L461.12062499999996,211.8647776055036L461.47142045454547,210.10261828889685L461.8222159090909,205.7121178307186L462.69920454545456,202.37527481919676L466.03176136363635,209.25131583264542L467.0841477272727,203.67815777903763L467.2595454545455,200.38844910241636L469.0135227272727,205.06928301146803L469.3643181818182,201.63497161931818L469.89051136363634,207.24256946040484L470.0659090909091,208.11311919759407L470.24130681818184,209.32940977498623L471.9952840909091,217.0561812091289L472.17068181818183,222.96444464299393L472.696875,228.93899366920112L473.7492613636364,227.53994993620378L474.62624999999997,217.30222156198417L474.9770454545454,211.9799040601084L475.3278409090909,210.3769681044124L475.6786363636364,211.07718349421933L477.2572159090909,217.84324174157078L477.95880681818187,219.48484090025704L478.6603977272727,224.44314839803093L479.0111931818182,225.8804807330529L479.53738636363636,218.76605291020434L481.1159659090909,218.4219672100018L481.29136363636366,213.6304779781109L481.99295454545455,215.4909668478005L483.0453409090909,217.45535400813043L483.3961363636364,215.62069505730145L485.50090909090915,216.49233270300317L485.67630681818184,218.06965663544332L485.8517045454546,218.45603445848622L486.0271022727273,225.6794303297523L486.55329545454543,223.29582359278947L487.25488636363644,221.31660490250388L488.30727272727273,226.77983644740175L488.4826704545454,227.63650044806494L489.00886363636357,217.48012076171457L490.4120454545454,216.22493524023088L491.2890340909091,222.33375313779L491.81522727272727,217.77981719348867L492.34142045454547,217.48757050802004L492.51681818181817,216.5518408595514L493.56920454545457,217.16329549233743L493.92,221.2278775161431L494.9723863636363,218.99921006840913L495.49857954545456,211.99294363627274L496.0247727272727,210.2576719638787L496.20017045454546,206.93742698960935L496.9017613636363,215.00325856616797L500.2343181818182,213.05719133886L500.93590909090904,222.12811722299193L501.2867045454546,219.73042307216036L502.1636931818182,227.62376694043792L503.04068181818184,224.97000312984096L505.3208522727273,228.6336199162242L506.0224431818182,227.30888918953275L506.5486363636363,223.42652498102473L509.1796022727273,217.51153074558977L511.1089772727273,217.17973298922004L511.284375,218.9504975086105L511.81056818181816,226.7733040053658L512.8629545454546,227.59865252077185L514.0907386363637,221.2685376065233L514.2661363636363,221.9762653493339L514.441534090909,218.02510608892598L514.6169318181818,217.23320652812612L514.7923295454545,219.60059874226658L514.9677272727273,218.05255708034068L516.3709090909091,218.3434651100864L520.4050568181817,218.2760726336125L520.5804545454546,222.38773344755506L520.7558522727273,225.26035215112492L521.9836363636364,221.89919759017496L523.9130113636363,219.0054697582894L524.2638068181818,220.87527241466316L526.3685795454545,224.33213528781525L526.5439772727274,220.5235953657367L527.0701704545455,221.453005597009L527.4209659090909,220.64752667152015L527.5963636363637,223.95366493641717L527.947159090909,229.12444182193119L531.2797159090909,232.489072306454L532.1567045454545,233.54131346732188L532.6828977272728,225.71256617378606L533.209090909091,229.2249760377572L534.7876704545455,232.31480505201552L534.9630681818182,231.7694005442132L536.0154545454545,232.8049781383625L536.36625,233.0551946597956L536.5416477272728,226.9646853729356L537.5940340909091,224.98971951035463L538.1202272727272,221.991605294739L538.2956250000001,228.84011729349692L539.1726136363636,222.71948355689423L539.5234090909091,224.74459264933662L539.8742045454545,227.7753605683424L540.4003977272728,225.1871176842629L541.9789772727272,226.60329596912348L542.855965909091,231.79977020168465L543.2067613636364,229.41767402201788L543.3821590909091,231.78502694703548L543.5575568181818,231.31816138154267L545.4869318181818,235.5493798598582L547.2409090909091,233.9056744726764L548.6440909090909,231.9646398056812L551.6258522727272,228.50323852232907L552.8536363636364,230.30305209944842L553.0290340909091,230.32041308335926L553.5552272727273,227.64347827905857L555.3092045454546,233.48913310458263L556.361590909091,233.96120409592643L557.0631818181818,240.1226894092719L557.9401704545455,235.02824483577177L558.2909659090909,240.03272625493724L558.6417613636364,236.28704093974355L558.9925568181818,230.84523429585232L559.3433522727272,232.74032783311506L560.0449431818182,236.36763977142905L560.220340909091,234.27291822954277L560.7465340909091,230.53996094433018L561.7989204545455,228.08847886322752L562.1497159090909,228.16904885014966L562.675909090909,229.561024237471L564.079090909091,233.0248913245066L564.4298863636363,231.6095267859869L564.6052840909091,227.77686983840138L564.7806818181818,233.4944965940865L566.1838636363636,233.37288270067663L568.8148295454546,233.60761251725478L569.165625,235.56400440431497L569.5164204545454,235.72866624366773L569.867215909091,237.16005629735196L570.2180113636364,232.10608285274913L571.7965909090909,231.12365437503206L572.4981818181818,228.85078985158972L574.7783522727273,224.34102546564816L575.4799431818183,226.447320239551L577.2339204545455,230.41070395166525L578.8125,232.50425059036073L581.443465909091,232.70324243540037L581.6188636363637,234.66880891188717L582.67125,240.00959123721347L582.8466477272727,241.28540448522523L583.1974431818181,242.79700257708987L583.7236363636364,246.1914134209951L584.600625,245.68617535804117L585.1268181818182,244.99555478187403L585.3022159090909,249.2766263106867L585.6530113636364,244.92561853595865L588.459375,244.5902528747055L589.6871590909091,241.7838462520934L590.38875,245.746331409006L591.6165340909091,243.44301447109262L591.7919318181819,238.40193886292872L593.0197159090909,234.83232134891915L593.5459090909092,232.73395508017504L597.7554545454545,237.79049700369572L598.2816477272727,232.91207206251636L599.5094318181818,235.14761956368574L600.035625,239.17563913889848L600.2110227272727,242.87601509911838L600.5618181818181,234.95986197487562L600.7372159090909,233.84876684856613L601.965,232.23247891600778L602.3157954545454,224.93551317235662L604.2451704545455,226.78084207540934L605.1221590909091,226.7495367992542L606.7007386363636,225.75629231940513L607.0515340909092,227.57637340313502L607.4023295454546,232.72034262703974L608.1039204545455,235.75635823493693L608.6301136363636,244.0935958278214L610.9102840909092,241.71484361673413L611.0856818181819,242.47615828027872L611.2610795454545,241.94213732144004L612.3134659090908,237.65004288533336L613.7166477272727,240.4488436644474L614.7690340909091,239.18507103079594L614.9444318181819,239.47736963887183L615.1198295454545,240.8776486559317L615.8214204545454,244.5800201661357L616.6984090909092,248.06853941172318L617.9261931818181,247.12240392965225L619.329375,244.6418678421575L620.0309659090909,248.63093800763073L620.7325568181818,253.84715233578294L621.0833522727273,243.17563428033742L622.1357386363636,246.95014882090402L622.6619318181819,246.69369971065905L623.0127272727273,247.45659538882578L623.3635227272728,246.08844726702537L623.7143181818182,238.5806721105653L624.2405113636363,244.49126051761328L625.1175000000001,241.18425281204162L627.2222727272728,237.14157209726665L628.0992613636363,233.58477682466884L628.97625,234.65836610174972L632.133409090909,244.29073922359657L632.835,245.9814621340024L633.3611931818182,245.15067309710514L634.2381818181817,240.78055943722686L635.2905681818182,239.29050949625218L635.4659659090909,242.90485056204875L636.1675568181818,244.1851012980539L636.5183522727273,248.41394900373643L637.5707386363637,251.1727776297385L637.7461363636363,250.85681729387147L638.7985227272727,253.25608561775954L640.0263068181818,255.57919669111118L641.0786931818182,260.6856563134211L641.6048863636363,258.94209043476724L642.6572727272727,258.9096612543178L644.5866477272727,259.28455131421697L644.9374431818181,254.75387969130315L646.1652272727273,251.32835860674828L646.6914204545454,258.6435178089001L647.2176136363636,256.942122354362L647.5684090909091,256.00700684300455L648.4453977272727,258.10073707631955L651.2517613636363,259.2915808996372L651.6025568181818,256.4881255566838L651.7779545454545,255.31346431107184L652.4795454545455,245.15386911753606L652.6549431818182,253.08572855459317L653.3565340909091,254.67694901261518L653.7073295454545,252.0493659673635L654.7597159090909,257.5166111064387L654.9351136363637,260.5150774189885L656.1628977272728,265.0998719975464L658.2676704545455,263.84038262369575L659.144659090909,269.15633839908674L659.6708522727272,266.23439530523933L661.2494318181818,264.88990587273463L661.4248295454545,264.347287477176L662.4772159090909,255.7052262696621L662.6526136363636,253.59554587901744L665.1081818181818,254.56777269833674L665.8097727272727,250.92395426428934L666.1605681818182,249.92312864906L666.5113636363636,243.96745846302917L667.0375568181818,240.77116178830133L667.5637499999999,243.9237136382202L669.1423295454546,250.18190426338563L670.194715909091,250.52587750083092L670.5455113636364,251.87375166672194L672.4748863636364,249.59675595772927L672.650284090909,244.57406065489022L673.7026704545455,247.2596906826332L674.9304545454545,247.50198763687888L679.14,250.45497779212835L679.6661931818182,253.48733377955907L680.1923863636364,252.32727898606274L680.5431818181818,255.55668147409085L684.2265340909091,261.1012685937975L684.7527272727273,262.54010488675914L685.4543181818183,264.7707053012062L685.6297159090909,273.0490845060253L685.8051136363637,274.7143625137153L686.8575,275.2488064472049L687.3836931818182,271.5649160465304L687.7344886363636,266.9816161639649L688.0852840909091,265.1720368546046L689.3130681818183,260.06459539867956L690.014659090909,265.4165255420026L690.5408522727273,265.3184490153897L691.417840909091,256.97660811815933L692.8210227272726,251.01625364359947L693.5226136363636,248.81967707655176L693.8734090909091,248.32904381585024L694.2242045454545,252.65071882550396L696.504375,256.041889605194L696.8551704545454,249.60637508531335L697.3813636363636,246.38503876392258L699.4861363636364,251.38707369152166L700.1877272727272,252.85329617294965L701.064715909091,249.25474134661658L701.4155113636364,244.7556898418897L703.1694886363637,246.08307404627033L703.5202840909091,249.7538419334704L703.8710795454546,254.6996649989186L706.15125,265.2612428320886L707.2036363636364,263.8000117588378L708.9576136363637,268.285033461809L709.8346022727272,268.7801694776939L711.0623863636364,262.3402499251804L711.5885795454545,263.6964427684346L711.939375,260.0949863336382L715.4473295454545,260.17395219218616L715.6227272727273,258.9899817364052L715.798125,253.18013166832714L716.6751136363637,261.81618347081246L717.0259090909091,257.8689007792921L718.0782954545455,264.4892105671835L718.7798863636364,263.72515588640283L720.1830681818182,256.1541164243408L720.3584659090909,260.8329782087366L721.2354545454546,268.4046523416839L721.4108522727273,264.7679545197283L722.1124431818182,270.313172357394L724.0418181818181,268.765898481324L725.0942045454545,267.2883829474066L726.1465909090908,273.5445492504128L726.6727840909091,273.28451117925715L728.6021590909091,271.782074595142L729.30375,273.1884832398551L730.0053409090909,270.4335154706737L730.3561363636363,269.6306818317133L731.233125,268.8285352405501L731.9347159090909,271.6142141585691L732.8117045454545,274.79579242540876L733.6886931818182,272.71408213581617L734.3902840909092,271.35637203224064L734.5656818181818,267.8475134881467L734.9164772727273,267.9703242578935L736.4950568181819,267.9041025039751L736.6704545454546,265.49105410591784L738.5998295454546,266.69412277713957L738.9506250000001,269.99807632834205L739.1260227272727,270.50175926873925L740.3538068181819,272.5405265454205L740.7046022727272,270.8654962940762L740.88,274.92462413023827L741.0553977272727,267.54070354781186L741.2307954545455,266.9644619463042L741.9323863636363,269.3929016631476L742.2831818181819,269.1498630347692L746.1419318181819,267.24607884810854L746.668125,255.31090017030633L748.7728977272727,257.398773904526L749.1236931818182,251.8335306118158L750.0006818181819,251.5450873579341L750.1760795454546,261.31452901986904L750.526875,257.1590431434512L751.9300568181818,259.7623342500585L752.8070454545455,268.1476028479012L754.0348295454546,264.3411607459114L758.9459659090909,264.4156326691809L760.17375,267.50401641138194L762.1031250000001,271.1002121235028L762.9801136363636,273.02313993388367L764.5586931818182,274.34299188325423L764.7340909090909,281.4156600929536L766.4880681818182,272.6086110204168L766.6634659090909,270.0960206124714L766.8388636363636,270.19241463974134L767.1896590909091,271.5149869799129L767.5404545454545,273.4812880149573L767.89125,275.66053358224485L768.0666477272728,272.6164575488144L768.2420454545455,269.10273263719534L768.5928409090909,276.63132358634266L771.75,279.38365895952404L772.6269886363636,283.59916266442355L773.5039772727272,278.2229928790178L774.0301704545454,277.94173216982136L774.5563636363636,279.4947488433716L775.4333522727272,278.32569076491274L777.3627272727272,275.3465783318165L778.9413068181818,278.96713567628234L779.4675000000001,274.4359753541369L779.6428977272727,267.12436356761793L781.2214772727273,271.6660021403854L782.2738636363637,272.4320855107338L784.9048295454545,270.40436027689725L785.0802272727273,274.28804939210096L786.1326136363637,272.8172349276217L786.8342045454546,271.6284247861347L787.3603977272728,275.7243901209489L788.4127840909091,276.61488825319714L788.7635795454545,273.8070962652176L790.342159090909,270.2085137980912L791.0437499999999,277.49883811021346L792.0961363636363,279.75473594836893L792.973125,276.63030854439484L794.0255113636364,281.1570717524817L794.7271022727273,282.913008919297L795.6040909090909,278.70939108726185L796.831875,281.05906140366477L797.533465909091,280.19855674389635L799.1120454545455,273.37584232410876L799.6382386363637,278.558749398344L801.7430113636364,276.29577151495954L802.9707954545455,265.0096975064656L803.4969886363637,269.7624688424099L803.847784090909,271.79029867229843L804.0231818181818,270.1712636468443L804.7247727272727,276.23249127755207L804.9001704545456,279.29933635056767L805.0755681818182,286.30996934524813L807.180340909091,283.79036206846087L808.2327272727273,272.8138960101449L808.4081249999999,283.04361156467786L808.7589204545454,280.84261808192923L809.6359090909091,282.13945721534304L809.8113068181818,284.62344050315875L810.3375,283.5285296571771L811.3898863636364,282.5249699986396L812.0914772727273,285.7680529705234L813.3192613636364,281.71011685111677L815.0732386363636,281.6428648849727L816.125625,283.47452041589867L816.8272159090909,282.45432704101387L817.353409090909,285.2454561733383L818.756590909091,287.7340698567126L819.1073863636364,284.9544919660964L821.3875568181818,280.3914372434475L822.0891477272727,277.70466511396165L822.2645454545454,284.89356396014864L825.5971022727273,287.07553210538424L825.7725,286.910436732936L826.2986931818182,292.01123587631594L827.5264772727272,287.99277923022004L827.8772727272727,281.77019538279643L829.2804545454545,279.03686582635356L829.63125,272.50242177271303L829.8066477272727,272.0274719540717L832.0868181818181,274.46656182502346L832.4376136363637,275.8664345532231L832.6130113636364,279.8034027735599L834.0161931818182,282.5542062588931L834.1915909090909,281.4364442116607L834.7177840909092,283.81462322932566L835.0685795454546,283.4860860242237L836.6471590909091,282.7197593901214L837.1733522727272,276.4664857355094L837.5241477272727,281.64023408612053L837.8749431818181,291.8855822788665L839.9797159090908,291.67913671438026L842.9614772727273,289.4674769347623L843.8384659090908,288.6456033681808L844.0138636363636,283.5443613932272L845.5924431818181,280.5679245524071L846.6448295454545,277.71875499552266L847.3464204545454,279.0372353057645L847.8726136363636,281.78194470228266L848.925,284.92743423229183L849.2757954545455,278.2932188435418L849.9773863636364,276.8410337025574L851.2051704545454,285.98963738252536L851.3805681818181,286.82247753686534L851.5559659090909,286.400032273523L853.3099431818182,287.6672854110102L856.1163068181819,290.4822144059993L856.9932954545454,291.28265706931813L857.8702840909092,298.00742757630326L858.7472727272727,296.1674250316546L858.9226704545455,296.6985948462424L859.2734659090909,296.3278223673529L859.7996590909091,291.3746876890078L861.5536363636363,284.82081840284417L862.2552272727273,281.898960735191L862.430625,285.77302099014673L863.4830113636364,285.75999514631224L864.1846022727273,289.5111604397951L864.36,290.2868546208962L865.7631818181819,289.9382571943633L866.1139772727273,293.65195461374395L866.2893750000001,289.9316949519558L866.4647727272727,289.0732847911937L866.8155681818182,289.9459091647998L867.3417613636364,290.11371536820485L867.517159090909,292.4646502309429L867.6925568181819,294.0619893491335L867.8679545454546,288.5835091010604L868.5695454545455,290.9087902676396L868.9203409090909,287.5270922060093L869.446534090909,293.02502546006883L869.6219318181819,290.5285460502382L869.7973295454545,291.0186846651634L869.9727272727273,296.1554685840413L870.3235227272727,296.87729450737254L870.849715909091,300.6509836930831L871.0251136363636,298.4042974477144L872.0775,296.97132953465876L873.1298863636364,295.529890128874L873.4806818181818,289.15501046696477L874.006875,284.9300095512169L876.1116477272727,287.53196124841725L876.9886363636364,293.1009009136937" style="fill: none;" fill="none"></path></g></g></g></g><g opacity="0.2"><g><g><g><path stroke="rgb(255, 112, 67)" stroke-width="2px" d="M32.097784090909094,67.13990791015624L34.37795454545455,42.8996546875L35.43034090909091,59.47152910156251L38.23670454545454,73.31869492187502L38.5875,65.65208330078127L39.11369318181818,82.04374140624998L39.46448863636363,103.66944072265625L40.516875000000006,72.38609853515624L41.043068181818185,76.08080898437498L43.67403409090909,79.10328867187496L44.024829545454544,41.3167701171875L44.200227272727275,53.52965566406249L45.07721590909091,69.01121220703124L46.480397727272724,84.59835820312497L47.708181818181814,114.05682158203126L49.111363636363635,76.388299609375L49.63755681818182,108.01624335937504L49.812954545454545,68.54099306640626L51.04073863636364,109.73748398437499L51.91772727272728,94.60616191406251L53.32090909090909,78.21726503906245L55.601079545454546,76.05890322265623L57.53045454545454,69.11440859375L58.40744318181819,69.18605332031251L58.93363636363637,79.58392685546875L60.51221590909091,82.10813330078122L60.68761363636364,64.34742031249999L62.44159090909091,49.456951171875005L63.31857954545454,95.47436640625L63.669375,114.57943046874999L63.84477272727272,48.33729062500004L64.54636363636364,35.48564042968752L65.94954545454546,49.79985917968747L67.35272727272728,102.11707695312498L67.528125,95.3975673828125L68.40511363636364,131.4430380859375L70.33448863636363,109.84340478515628L71.386875,115.768011328125L72.26386363636364,103.67308554687497L72.79005681818182,99.28545351562497L74.89482954545456,85.79389736328125L75.94721590909091,123.04698300781251L76.82420454545453,137.9437109375L77.35039772727274,74.1278458984375L78.05198863636363,114.48945117187503L78.75357954545454,79.42896660156248L79.104375,81.503423828125L82.43693181818182,74.22949599609376L83.31392045454545,73.013560546875L83.48931818181819,83.79056943359376L84.36630681818181,93.44975859375L85.24329545454546,122.5511396484375L85.59409090909091,113.99721582031248L86.99727272727273,119.86394697265627L87.17267045454545,57.23058808593754L88.40045454545455,93.11314619140626L89.10204545454546,126.1647435546875L90.680625,74.09935000000002L92.08380681818183,79.42616855468754L94.89017045454545,95.5542580078125L95.59176136363637,96.97257324218748L96.64414772727272,103.7095337890625L97.34573863636363,60.44974101562502L97.6965340909091,158.77678984374998L99.97670454545455,96.05890048828127L102.78306818181818,109.46390126953128L105.06323863636364,110.828427734375L105.23863636363636,85.24529609375003L105.58943181818182,84.58318984375L106.64181818181818,114.13321562499999L108.22039772727274,86.38837187499996L108.57119318181819,113.39232226562501L108.74659090909091,125.22934912109375L109.2727840909091,131.59589980468752L110.32517045454546,135.3097916015625L111.90375,148.497501953125L112.42994318181819,83.81033984375L112.6053409090909,80.11621845703127L114.35931818181818,142.072302734375L117.34107954545455,91.56726210937501L117.691875,94.11679824218749L120.14744318181818,86.08824453124998L121.02443181818182,126.5859232421875L121.37522727272729,127.41889443359375L121.90142045454546,100.23583222656248L123.30460227272728,154.86607753906247L124.35698863636364,142.87390634765623L124.70778409090909,107.68423300781245L125.23397727272726,104.70423945312496L126.28636363636365,93.4315712890625L127.16335227272727,129.68428154296876L128.91732954545455,117.59266923828125L129.9697159090909,141.835646875L131.02210227272727,108.14388583984373L131.7236931818182,91.14512519531252L132.77607954545454,171.02328876953123L133.126875,134.20110234375L133.30227272727274,121.71441318359373L133.65306818181818,64.58893593750003L134.00386363636363,87.00467851562496L134.17926136363636,136.1396333984375L135.05625,164.292329296875L135.23164772727273,143.47879990234375L136.81022727272727,116.72185078125L137.86261363636362,144.31320693359373L138.2134090909091,147.43332373046877L139.09039772727274,154.33801982421872L139.96738636363636,131.82964716796874L140.3181818181818,155.29366328125002L142.42295454545456,62.705629492187484L143.65073863636363,58.357096484375006L143.82613636363635,97.90958759765624L144.17693181818183,146.70774599609373L144.52772727272728,160.69621318359376L144.703125,188.82755556640626L145.05392045454545,131.1897412109375L147.15869318181817,145.5473296875L147.68488636363637,145.65048925781252L148.3864772727273,74.4901193359375L148.91267045454546,156.8948087890625L149.43886363636364,99.98761601562501L150.14045454545453,146.3215787109375L150.31585227272728,174.1521310546875L151.01744318181818,114.89468935546876L151.89443181818183,121.25339814453125L152.06982954545455,97.47427041015624L153.82380681818182,148.81136181640625L154.52539772727272,140.05520546875002L155.0515909090909,135.1887392578125L156.4547727272727,102.7231854492187L157.15636363636364,150.68067802734373L157.68255681818184,108.04113124999998L157.85795454545453,137.92994160156252L158.03335227272726,110.94657158203125L159.26113636363635,118.20326933593753L160.31352272727273,107.09745312499996L160.66431818181817,84.21962783203128L160.8397159090909,101.76275585937498L161.54130681818182,173.61726230468747L162.24289772727272,145.460884765625L162.76909090909092,105.90309208984371L162.94448863636362,73.50130429687499L163.11988636363637,109.65785009765625L163.82147727272726,125.75398291015625L165.4000568181818,143.383555859375L166.10164772727273,159.92063876953125L166.27704545454546,107.68820917968748L166.45244318181818,139.39181064453123L166.80323863636363,137.1970005859375L166.97863636363638,84.733253515625L168.03102272727273,106.20789511718749L168.73261363636362,130.7831408203125L168.90801136363638,113.80146298828129L169.25880681818182,137.95928427734376L169.60960227272727,112.74173955078123L170.13579545454544,125.0520044921875L170.31119318181817,118.21089033203123L170.48659090909092,129.49261533203122L170.66198863636365,138.5029521484375L171.18818181818182,137.76713945312497L171.88977272727274,129.48168085937502L172.76676136363636,152.931669921875L172.9421590909091,143.06247998046874L173.1175568181818,125.48728486328125L174.16994318181818,146.48154599609376L177.15170454545452,103.51635810546873L177.85329545454545,126.86819462890625L178.20409090909092,140.1607212890625L179.08107954545454,171.18502324218747L183.290625,126.40110488281252L183.64142045454545,124.0779896484375L183.81681818181818,95.83016015625003L184.51840909090907,146.7186068359375L184.86920454545455,138.838349609375L185.57079545454548,149.08671171875002L185.9215909090909,108.21527285156247L187.32477272727272,149.780185546875L188.3771590909091,109.99637695312498L189.07875,71.98763457031248L190.30653409090908,102.86809482421876L190.65732954545456,176.8445884765625L191.7097159090909,143.43819140625L192.06051136363638,148.6262857421875L192.58670454545455,66.23492382812498L192.76210227272728,129.5295421875L193.11289772727272,156.07652734375L194.51607954545455,138.8176587890625L194.69147727272727,108.02423251953127L195.21767045454544,126.599398046875L196.44545454545454,125.6541736328125L196.97164772727274,143.5805236328125L198.55022727272728,154.31964843749998L199.25181818181818,98.4799841796875L199.77801136363638,155.47866572265625L199.9534090909091,153.1480767578125L201.53198863636362,135.369949609375L201.70738636363635,106.81194189453123L202.40897727272727,137.50393896484374L202.584375,171.130166796875L202.75977272727275,111.09972783203125L202.93517045454544,158.65308671875L203.63676136363634,176.4283421875L203.8121590909091,149.72915800781252L204.33835227272726,139.134353515625L204.51375,134.31843623046873L205.9169318181818,101.17748544921875L206.61852272727273,165.099050390625L206.96931818181818,142.87162373046877L207.32011363636363,141.35117978515623L207.49551136363635,209.00677509765626L209.07409090909093,111.68146386718752L209.6002840909091,162.372574609375L211.0034659090909,144.82845253906248L211.35426136363637,158.05883310546872L212.0558522727273,118.75993339843751L212.23125,145.76657138671877L213.10823863636364,123.265304296875L214.33602272727273,159.16616015625L216.26539772727273,93.74432666015622L216.61619318181818,174.4724337890625L217.66857954545455,155.1629650390625L218.19477272727272,133.54926787109378L218.5455681818182,190.036422265625L219.2471590909091,155.05568203125003L219.94875000000002,129.3926587890625L220.29954545454544,210.86173291015623L221.1765340909091,120.69618183593747L221.35193181818184,195.84163320312499L221.52732954545453,135.39594199218752L222.93051136363636,119.97730468750001L223.98289772727273,149.163437109375L224.68448863636362,160.61889873046874L224.85988636363638,122.38141601562498L225.0352840909091,119.17614287109376L226.61386363636362,218.2125333984375L227.49085227272727,185.69068730468751L229.94642045454546,181.26207861328126L230.2972159090909,155.652844140625L233.80517045454545,153.69896064453127L233.98056818181817,180.97196533203126L234.6821590909091,147.1967783203125L234.85755681818182,128.0476818359375L235.03295454545454,100.13510253906253L238.19011363636363,145.03009599609376L239.06710227272728,141.94436572265627L240.29488636363635,151.88759345703124L240.4702840909091,121.24467265625L241.52267045454545,111.71058564453125L241.87346590909092,155.6729458984375L242.75045454545457,143.6697666015625L243.10125,101.00091396484373L243.45204545454544,148.32733652343748L244.15363636363637,102.7973705078125L247.31079545454543,99.08333144531252L247.66159090909093,115.95352919921874L248.01238636363635,156.82165458984377L249.41556818181817,115.6380494140625L249.94176136363637,157.603524609375L251.34494318181817,168.8766345703125L251.87113636363637,139.34446474609373L252.3973295454545,235.911284375L254.6775,187.4787865234375L255.90528409090908,158.97235859375L256.95767045454545,144.23574521484375L257.65926136363635,130.75700117187498L257.8346590909091,142.71441767578125L258.0100568181818,99.6930111328125L258.18545454545455,170.69580683593747L259.2378409090909,146.383062109375L260.9918181818182,154.19266865234377L261.86880681818184,139.7831322265625L262.04420454545453,136.14703349609374L262.57039772727273,187.49701064453126L263.6227840909091,186.80342636718748L263.9735795454545,152.65874990234374L264.4997727272727,169.0386267578125L265.02596590909087,156.2553814453125L265.5521590909091,145.9853712890625L265.7275568181818,89.51489472656249L268.8847159090909,190.168666796875L270.8140909090909,153.95118984375003L271.5156818181818,174.17024472656252L274.14664772727275,165.72419296875L274.6728409090909,134.1506638671875L274.8482386363636,198.6195783203125L275.1990340909091,184.65371640625003L275.37443181818185,167.5612580078125L279.05778409090914,201.14231210937498L279.23318181818183,157.25288515625002L280.1101704545455,222.69478359375L280.6363636363636,187.72980078125L281.3379545454545,103.85900839843748L281.68874999999997,183.977914453125L282.3903409090909,138.8755341796875L283.0919318181818,154.87719609375L283.7935227272727,192.06360722656248L288.1784659090909,151.12203310546874L288.35386363636366,217.66349033203124L290.28323863636365,161.22574355468748L291.6864204545455,137.9459935546875L291.8618181818182,166.51118046875L292.38801136363634,177.90011484375L292.73880681818184,155.99943378906252L292.91420454545454,161.04099882812497L294.4927840909091,191.10866328125L295.7205681818182,149.21512734375L298.35153409090907,196.08800859375L298.5269318181818,172.1901111328125L299.053125,144.91165761718747L300.28090909090906,157.62627714843748L302.3856818181818,91.53839804687499L303.26267045454546,206.605572265625L303.4380681818182,164.3024169921875L303.78886363636366,206.27669130859374L305.0166477272727,154.3728849609375L306.2444318181818,175.24579921875L306.41982954545455,183.90914140625L307.9984090909091,174.7906748046875L308.7,132.1172201171875L309.05079545454544,212.84326552734376L309.7523863636364,215.19060595703127L311.33096590909093,200.2029783203125L312.55875000000003,181.69559179687502L312.7341477272727,154.9495771484375L313.6111363636364,182.57145410156252L315.01431818181817,178.20760546875L316.5928977272727,244.695237109375L316.76829545454547,175.16708574218748L317.46988636363636,161.124056640625L318.346875,213.53434628906248L318.87306818181816,197.08797900390624L319.22386363636366,216.95168193359376L319.7500568181818,279.08279140625L320.27625,173.05967783203124L320.9778409090909,151.4288978515625L322.38102272727275,124.73527294921874L323.78420454545454,204.6322865234375L324.13500000000005,208.1559111328125L324.48579545454544,186.05178261718748L325.01198863636364,172.46292070312498L325.1873863636364,209.9652166015625L326.23977272727274,133.74535205078126L326.41517045454543,168.298837890625L327.8183522727272,194.08313437500001L328.5199431818182,199.976115625L328.6953409090909,193.44105625L328.8707386363636,187.34109316406253L329.2215340909091,178.839375L329.7477272727273,177.4175990234375L330.9755113636364,216.31733525390624L331.1509090909091,197.478932421875L332.5540909090909,192.0792173828125L332.7294886363636,198.94720751953125L334.30806818181816,190.3584921875L335.0096590909091,188.3503044921875L335.36045454545456,166.01537392578123L335.53585227272725,211.16024033203126L335.88664772727276,208.77188642578125L336.7636363636364,186.4298134765625L336.9390340909091,177.68569609374998L337.28982954545455,190.57084921875L337.46522727272725,245.9312375L337.640625,216.1558216796875L338.51761363636365,160.64687919921877L340.97318181818184,148.7171486328125L342.55176136363633,202.6123912109375L343.6041477272727,190.33441425781248L344.83193181818183,194.06244355468752L345.0073295454545,164.63383828125L346.5859090909091,206.40628505859377L347.81369318181817,192.765990625L349.3922727272727,149.66726962890624L349.9184659090909,199.58310048828125L351.14625,174.1718646484375L351.49704545454546,175.8686591796875L352.19863636363635,185.4530005859375L353.95261363636365,207.5836369140625L354.12801136363635,153.27575605468752L354.65420454545455,212.6453037109375L355.5311931818182,212.7499359375L356.2327840909091,171.99704589843748L358.51295454545453,186.4442455078125L358.86375,180.7606759765625L359.03914772727273,155.16432724609373L360.0915340909091,201.75129228515627L360.2669318181818,241.56396494140625L360.4423295454546,157.512219921875L360.793125,220.67606640625002L361.1439204545454,180.4629048828125L363.2486931818182,165.8267634765625L366.40585227272726,194.5513654296875L367.45823863636366,199.94743564453125L368.6860227272727,167.70403203125L369.7384090909091,227.1725421875L370.44,168.34769326171875L370.79079545454545,177.01022548828124L371.14159090909095,176.9242591796875L372.1939772727273,215.7121103515625L372.72017045454544,196.3986654296875L373.07096590909094,197.49524208984374L373.5971590909091,188.55481962890627L374.1233522727273,170.906323046875L374.64954545454543,220.418498828125L376.22812500000003,222.8458044921875L376.5789204545454,189.96812783203126L378.68369318181817,176.807109375L378.85909090909087,197.697769140625L379.0344886363637,210.578504296875L381.4900568181818,197.5274564453125L382.1916477272727,174.93595234375L382.89323863636366,210.30241806640623L383.59482954545456,234.82847705078126L383.77022727272725,225.53332851562502L384.29642045454545,218.7384189453125L384.6472159090909,221.63958857421875L384.99801136363635,188.752266015625L386.4011931818182,199.07860527343752L386.7519886363636,199.6523521484375L387.2781818181818,228.21614003906248L387.80437500000005,207.21528876953124L388.3305681818182,173.218098828125L388.6813636363636,202.87194687500002L389.20755681818184,164.2767927734375L389.73375000000004,164.928811328125L392.5401136363636,184.23069589843752L393.7678977272727,153.91871777343752L394.6448863636364,188.38752587890622L394.8202840909091,193.40169951171873L394.9956818181818,199.829291796875L395.34647727272727,165.515223046875L395.52187499999997,221.150408984375L395.87267045454547,170.31932226562503L396.2234659090909,174.31154609375L396.9250568181818,179.964337109375L397.62664772727277,185.66443720703126L398.50363636363636,206.65324951171874L398.8544318181818,183.92434658203123L400.0822159090909,160.24528583984375L400.43301136363635,212.43990498046875L400.6084090909091,196.439384375L401.48539772727275,197.7007880859375L402.18698863636365,177.44451181640628L403.06397727272724,167.9389943359375L403.4147727272727,175.42487421875L403.5901704545455,147.81021328125L405.3441477272727,172.616666015625L405.5195454545455,245.1556630859375L406.22113636363633,227.0082673828125L406.74732954545453,188.853879296875L407.2735227272727,168.41311601562498L407.4489204545455,196.38430703125002L407.97511363636363,199.364816015625L408.1505113636363,183.44293525390626L408.50130681818183,142.218979296875L409.3782954545455,229.70414873046875L409.5536931818182,134.9625392578125L410.7814772727273,190.0881125L410.95687499999997,209.29512119140625L411.6584659090909,195.76148388671876L412.00926136363637,190.684980078125L412.3600568181818,191.12445751953123L413.0616477272727,189.66369296874998L414.815625,193.6949421875L415.1664204545454,229.419815625L415.5172159090909,220.033251953125L415.69261363636366,174.7488513671875L416.39420454545456,232.5373552734375L416.9203977272727,199.82030859374998L418.32357954545455,203.14232656250002L419.02517045454545,225.02942236328124L421.48073863636364,220.606115234375L422.1823295454546,196.2406494140625L422.533125,250.46263759765623L423.41011363636363,243.95581640625L423.5855113636364,192.370876953125L423.9363068181818,192.221696875L424.2871022727273,189.5438923828125L424.4625,180.473434375L424.8132954545454,199.6807744140625L425.16409090909093,206.113116015625L425.3394886363636,229.41278369140625L426.5672727272727,222.23295859375L427.0934659090909,209.0630673828125L427.9704545454546,202.1934205078125L430.0752272727273,194.30186064453125L430.77681818181816,206.839871875L431.30301136363636,249.28322402343753L433.05698863636366,184.51698027343753L434.109375,219.62911826171876L434.28477272727275,209.96495888671876L434.63556818181814,185.12540820312498L435.16176136363634,206.3308482421875L435.68795454545455,262.15552822265624L435.8633522727273,257.929409765625L436.03875,156.4474158203125L437.7927272727273,200.8541869140625L437.968125,202.1445283203125L438.14352272727274,235.14447226562498L438.4943181818182,161.54041337890627L440.5990909090909,197.43066611328123L440.7744886363637,175.97623671875002L440.9498863636364,253.2246412109375L441.1252840909091,191.88110830078125L442.52846590909087,205.68505166015626L444.10704545454547,199.4111310546875L447.0888068181818,200.0490857421875L449.544375,233.51645078125L450.2459659090909,191.55090195312502L450.4213636363636,182.79323613281252L450.7721590909091,205.2915947265625L452.1753409090909,181.1002705078125L452.5261363636364,197.64629980468752L453.22772727272724,225.34884150390624L454.98170454545453,215.53450800781252L456.3848863636364,217.00705380859375L456.5602840909091,190.028469921875L458.48965909090913,252.09724921875L459.8928409090909,202.8007439453125L460.94522727272727,236.500346875L461.12062499999996,199.10816884765623L461.47142045454547,200.11704882812498L461.8222159090909,180.832615234375L462.69920454545456,183.46649775390622L466.03176136363635,248.21554824218748L467.0841477272727,172.09692880859373L467.2595454545455,181.7467666015625L469.0135227272727,231.59400849609375L469.3643181818182,182.17387373046876L469.89051136363634,239.0189572265625L470.0659090909091,213.046234375L470.24130681818184,216.22172304687498L471.9952840909091,260.8412193359375L472.17068181818183,256.4446041015625L472.696875,262.794771484375L473.7492613636364,219.61203544921875L474.62624999999997,159.28842744140627L474.9770454545454,181.82010488281247L475.3278409090909,201.29366435546876L475.6786363636364,215.045070703125L477.2572159090909,256.1842384765625L477.95880681818187,228.7872361328125L478.6603977272727,252.54022421874998L479.0111931818182,234.02536396484376L479.53738636363636,178.4509619140625L481.1159659090909,216.4721482421875L481.29136363636366,186.47870566406252L481.99295454545455,226.033737109375L483.0453409090909,228.58688125L483.3961363636364,205.2242943359375L485.50090909090915,221.43161269531248L485.67630681818184,227.0078255859375L485.8517045454546,220.6455087890625L486.0271022727273,266.61200693359376L486.55329545454543,209.78871875000002L487.25488636363644,210.10103232421875L488.30727272727273,257.73814853515626L488.4826704545454,232.49092978515625L489.00886363636357,159.92730253906248L490.4120454545454,209.11221728515625L491.2890340909091,256.950387890625L491.81522727272727,191.97418017578127L492.34142045454547,215.83150595703125L492.51681818181817,211.2493728515625L493.56920454545457,220.628205078125L493.92,244.260508984375L494.9723863636363,206.37009453125L495.49857954545456,172.2907671875L496.0247727272727,200.4244658203125L496.20017045454546,188.12270546874998L496.9017613636363,260.7096375L500.2343181818182,202.02947705078125L500.93590909090904,273.53003056640625L501.2867045454546,206.14348955078125L502.1636931818182,272.3527155273438L503.04068181818184,209.93200820312498L505.3208522727273,249.3941150390625L506.0224431818182,219.80208173828126L506.5486363636363,201.4264611328125L509.1796022727273,183.99323007812498L511.1089772727273,215.299545703125L511.284375,228.98482978515625L511.81056818181816,271.10254082031247L512.8629545454546,232.27562744140624L514.0907386363637,185.39788642578128L514.2661363636363,225.98672255859375L514.441534090909,195.63520361328125L514.6169318181818,212.74577568359376L514.7923295454545,233.0158212890625L514.9677272727273,209.28032099609376L516.3709090909091,219.9919439453125L520.4050568181817,217.89418193359376L520.5804545454546,245.6871447265625L520.7558522727273,241.5385248046875L521.9836363636364,202.852655078125L523.9130113636363,202.6076787109375L524.2638068181818,231.47082080078124L526.3685795454545,243.92102490234376L526.5439772727274,198.94186914062502L527.0701704545455,226.71966357421877L527.4209659090909,216.08314609375L527.5963636363637,242.6884484375L527.947159090909,258.42551083984375L531.2797159090909,251.55531171875L532.1567045454545,239.50401337890625L532.6828977272728,181.34966484375L533.209090909091,249.12863193359374L534.7876704545455,249.82383613281252L534.9630681818182,228.678775L536.0154545454545,238.673251171875L536.36625,234.47308828125L536.5416477272728,192.4517994140625L537.5940340909091,213.79824628906252L538.1202272727272,205.00229140624998L538.2956250000001,267.64835195312503L539.1726136363636,188.0358923828125L539.5234090909091,236.22021083984373L539.8742045454545,244.949712109375L540.4003977272728,210.5204080078125L541.9789772727272,234.62830625L542.855965909091,261.24645751953125L543.2067613636364,215.91912900390625L543.3821590909091,245.20002685546874L543.5575568181818,228.67258984375L545.4869318181818,259.5262845703125L547.2409090909091,224.5913439453125L548.6440909090909,220.965443359375L551.6258522727272,208.88863125L552.8536363636364,240.501995703125L553.0290340909091,230.4187919921875L553.5552272727273,212.4741810546875L555.3092045454546,266.61451044921876L556.361590909091,236.636273046875L557.0631818181818,275.0377728515625L557.9401704545455,206.1597255859375L558.2909659090909,268.391454296875L558.6417613636364,215.0614908203125L558.9925568181818,200.00832998046874L559.3433522727272,243.4791912109375L560.0449431818182,256.922407421875L560.220340909091,222.4028294921875L560.7465340909091,209.386536328125L561.7989204545455,214.1967470703125L562.1497159090909,228.625612109375L562.675909090909,237.448884765625L564.079090909091,252.65347148437502L564.4298863636363,223.589127734375L564.6052840909091,206.05848046875L564.7806818181818,265.89438154296874L566.1838636363636,232.6837373046875L568.8148295454546,234.93774814453127L569.165625,246.65022509765626L569.5164204545454,236.66174999999998L569.867215909091,245.2712666015625L570.2180113636364,203.4669L571.7965909090909,225.55655966796877L572.4981818181818,215.97122421875L574.7783522727273,198.7856939453125L575.4799431818183,238.382990625L577.2339204545455,252.8698783203125L578.8125,244.36768154296874L581.443465909091,233.830862890625L581.6188636363637,245.8070189453125L582.67125,270.2740244140625L582.8466477272727,248.515012890625L583.1974431818181,251.36272509765627L583.7236363636364,265.426408203125L584.600625,242.82315966796875L585.1268181818182,241.08203818359374L585.3022159090909,273.536031640625L585.6530113636364,220.2699078125L588.459375,242.6898474609375L589.6871590909091,225.88087539062502L590.38875,268.20041396484373L591.6165340909091,230.39088515625002L591.7919318181819,209.83584375L593.0197159090909,214.60448876953126L593.5459090909092,220.843212890625L597.7554545454545,266.4442345703125L598.2816477272727,205.2676640625L599.5094318181818,247.8157220703125L600.035625,262.0010833984375L600.2110227272727,263.8448122070313L600.5618181818181,190.1016609375L600.7372159090909,227.5525611328125L601.965,223.07351396484376L602.3157954545454,183.58604062499998L604.2451704545455,237.237705859375L605.1221590909091,226.57214023437498L606.7007386363636,220.12790693359375L607.0515340909092,237.8901662109375L607.4023295454546,261.8695015625L608.1039204545455,252.9604466796875L608.6301136363636,291.3379421875L610.9102840909092,228.23524775390624L611.0856818181819,246.79027470703124L611.2610795454545,238.9160185546875L612.3134659090908,213.3281744140625L613.7166477272727,256.30871474609376L614.7690340909091,232.02369277343752L614.9444318181819,241.13372841796874L615.1198295454545,248.81256308593748L615.8214204545454,265.560125390625L616.6984090909092,267.83681513671877L617.9261931818181,241.76096953125L619.329375,230.5854966796875L620.0309659090909,271.2356689453125L620.7325568181818,283.40570019531253L621.0833522727273,182.70369863281252L622.1357386363636,268.33906455078125L622.6619318181819,245.2404880859375L623.0127272727273,251.7796708984375L623.3635227272728,238.33560791015626L623.7143181818182,196.036612890625L624.2405113636363,277.9845948242188L625.1175000000001,222.44454248046875L627.2222727272728,214.233048046875L628.0992613636363,213.42960361328124L628.97625,240.742038671875L632.133409090909,298.87418691406253L632.835,255.56222529296875L633.3611931818182,240.4428685546875L634.2381818181817,216.01658203125L635.2905681818182,230.8468931640625L635.4659659090909,263.3861166015625L636.1675568181818,251.43985546875L636.5183522727273,272.3774193359375L637.5707386363637,266.80613984375L637.7461363636363,249.066375390625L638.7985227272727,266.851939453125L640.0263068181818,268.74349277343754L641.0786931818182,289.62226083984376L641.6048863636363,249.0618837890625L642.6572727272727,258.7258958984375L644.5866477272727,261.4089283203125L644.9374431818181,229.080073828125L646.1652272727273,231.9170724609375L646.6914204545454,300.0960866210938L647.2176136363636,247.30088144531248L647.5684090909091,250.70801894531252L648.4453977272727,269.9652083984375L651.2517613636363,266.0396958984375L651.6025568181818,240.60187861328126L651.7779545454545,248.6570505859375L652.4795454545455,187.58282968749998L652.6549431818182,298.03293203124997L653.3565340909091,263.6938649414062L653.7073295454545,237.15972871093751L654.7597159090909,288.4976668945312L654.9351136363637,277.5063865234375L656.1628977272728,291.080374609375L658.2676704545455,256.703276171875L659.144659090909,299.28008779296874L659.6708522727272,249.67671777343747L661.2494318181818,257.271132421875L661.4248295454545,261.27244990234374L662.4772159090909,206.73354609375L662.6526136363636,241.64069033203126L665.1081818181818,260.0770580078125L665.8097727272727,230.2756498046875L666.1605681818182,244.25178349609374L666.5113636363636,210.2186607421875L667.0375568181818,222.65881396484374L667.5637499999999,261.78817412109373L669.1423295454546,285.64498447265623L670.194715909091,252.4750591796875L670.5455113636364,259.5117052734375L672.4748863636364,236.6937802734375L672.650284090909,216.11212060546876L673.7026704545455,262.47826083984376L674.9304545454545,248.8750037109375L679.14,267.188588671875L679.6661931818182,270.670684375L680.1923863636364,245.75363515625L680.5431818181818,273.85662890624997L684.2265340909091,292.52059560546877L684.7527272727273,270.693510546875L685.4543181818183,277.4107743164062L685.6297159090909,319.9599L685.8051136363637,284.150937890625L686.8575,278.2773220703125L687.3836931818182,250.689537109375L687.7344886363636,241.00958349609374L688.0852840909091,254.9177541015625L689.3130681818183,231.1224271484375L690.014659090909,295.7441296875L690.5408522727273,264.76268203125L691.417840909091,209.7061763671875L692.8210227272726,217.24091162109374L693.5226136363636,236.37240986328126L693.8734090909091,245.548788671875L694.2242045454545,277.140210546875L696.504375,275.2585240234375L696.8551704545454,213.13845947265625L697.3813636363636,228.130799609375L699.4861363636364,279.73193828125L700.1877272727272,261.161890234375L701.064715909091,228.8629306640625L701.4155113636364,219.2610646484375L703.1694886363637,253.60491787109373L703.5202840909091,270.5548599609375L703.8710795454546,282.725995703125L706.15125,325.11018388671874L707.2036363636364,255.51970234375L708.9576136363637,293.7001564453125L709.8346022727272,271.585940234375L711.0623863636364,225.8473724609375L711.5885795454545,271.381535546875L711.939375,239.686733203125L715.4473295454545,260.621425390625L715.6227272727273,252.2808158203125L715.798125,220.25764794921875L716.6751136363637,310.7538103515625L717.0259090909091,235.50096552734374L718.0782954545455,302.0042993652344L718.7798863636364,259.3955126953125L720.1830681818182,213.25155947265625L720.3584659090909,287.3465283203125L721.2354545454546,311.31080576171877L721.4108522727273,244.1600001953125L722.1124431818182,301.7360734375L724.0418181818181,259.99801318359374L725.0942045454545,258.915794921875L726.1465909090908,308.99615830078125L726.6727840909091,271.810962109375L728.6021590909091,263.26826728515624L729.30375,281.1581322265625L730.0053409090909,254.82203144531252L730.3561363636363,265.0812912109375L731.233125,264.283037890625L731.9347159090909,287.39972802734377L732.8117045454545,292.8247359375L733.6886931818182,260.91772382812496L734.3902840909092,263.6626814453125L734.5656818181818,247.96398173828126L734.9164772727273,268.66625195312497L736.4950568181819,267.5288458984375L736.6704545454546,251.81711318359376L738.5998295454546,273.5115119140625L738.9506250000001,288.7204797851563L739.1260227272727,273.35596259765623L740.3538068181819,284.0935411132813L740.7046022727272,261.373658203125L740.88,297.92634853515625L741.0553977272727,225.6984869140625L741.2307954545455,263.69909287109374L741.9323863636363,283.15406005859376L742.2831818181819,267.772644140625L746.1419318181819,256.45796845703126L746.668125,187.67822099609376L748.7728977272727,269.2300583984375L749.1236931818182,220.297151953125L750.0006818181819,249.91057558593752L750.1760795454546,316.6746984375L750.526875,233.61128984375L751.9300568181818,274.5143171875L752.8070454545455,315.66412490234376L754.0348295454546,242.77132216796875L758.9459659090909,264.837640234375L760.17375,285.0048576171875L762.1031250000001,291.4786544921875L762.9801136363636,283.919730859375L764.5586931818182,281.8221529296875L764.7340909090909,321.49411328125L766.4880681818182,222.701999609375L766.6634659090909,255.85800830078125L766.8388636363636,270.7386474609375L767.1896590909091,279.00956357421876L767.5404545454545,284.623660546875L767.89125,288.009591796875L768.0666477272728,255.366693359375L768.2420454545455,249.1916248046875L768.5928409090909,319.29333896484377L771.75,294.98022607421876L772.6269886363636,307.4870169921875L773.5039772727272,247.75803076171874L774.0301704545454,276.347921484375L774.5563636363636,288.29517666015624L775.4333522727272,271.7010283203125L777.3627272727272,258.46494121093747L778.9413068181818,299.48362729492186L779.4675000000001,248.7594001953125L779.6428977272727,225.69189677734374L781.2214772727273,297.40195405273437L782.2738636363637,276.773224609375L784.9048295454545,258.91391728515623L785.0802272727273,296.29562104492186L786.1326136363637,264.48261962890626L786.8342045454546,264.891833984375L787.3603977272728,298.9348603515625L788.4127840909091,281.6610443359375L788.7635795454545,257.896275L790.342159090909,249.816546484375L791.0437499999999,318.81067587890624L792.0961363636363,292.53815703124997L792.973125,258.925219921875L794.0255113636364,306.80872993164064L794.7271022727273,292.86331953125L795.6040909090909,254.88889003906252L796.831875,294.37385986328127L797.533465909091,275.322363671875L799.1120454545455,234.7137939453125L799.6382386363637,307.92855615234373L801.7430113636364,263.47223017578125L802.9707954545455,201.055278125L803.4969886363637,296.69483974609375L803.847784090909,283.28133437500003L804.0231818181818,260.9967318359375L804.7247727272727,310.5794478515625L804.9001704545456,296.6781250976562L805.0755681818182,326.0368896484375L807.180340909091,269.5125875L808.2327272727273,210.6139216796875L808.4081249999999,341.01199970703124L808.7589204545454,268.3703216796875L809.6359090909091,289.4882123046875L809.8113068181818,298.69934580078126L810.3375,277.3240348632812L811.3898863636364,276.83813193359373L812.0914772727273,304.14552314453124L813.3192613636364,258.7151455078125L815.0732386363636,281.26177041015626L816.125625,293.8539017578125L816.8272159090909,276.67323125L817.353409090909,301.06185458984373L818.756590909091,301.8362140625L819.1073863636364,269.2035505859375L821.3875568181818,254.5341271484375L822.0891477272727,262.479623046875L822.2645454545454,325.630657421875L825.5971022727273,299.44001826171876L825.7725,285.9748962890625L826.2986931818182,320.91576435546875L827.5264772727272,265.22152490234373L827.8772727272727,246.5088869140625L829.2804545454545,263.54799833984373L829.63125,235.47390546875002L829.8066477272727,269.3360896484375L832.0868181818181,288.28807109375L832.4376136363637,283.79904667968754L832.6130113636364,302.1128893554687L834.0161931818182,298.14209267578127L834.1915909090909,275.10245927734377L834.7177840909092,297.29097099609373L835.0685795454546,281.6243751953125L836.6471590909091,278.377241796875L837.1733522727272,241.031268359375L837.5241477272727,310.95814140625L837.8749431818181,349.94255537109376L839.9797159090908,290.509278515625L842.9614772727273,276.93473818359377L843.8384659090908,283.98831982421876L844.0138636363636,254.63732353515624L845.5924431818181,263.70144912109373L846.6448295454545,261.57346083984373L847.3464204545454,286.50862373046874L847.8726136363636,297.3352979492187L848.925,302.75187490234373L849.2757954545455,240.699331640625L849.9773863636364,268.6119845703125L851.2051704545454,337.83172490234375L851.3805681818181,291.541905078125L851.5559659090909,284.00617578125L853.3099431818182,294.8483865234375L856.1163068181819,306.4334787109375L856.9932954545454,295.81849882812503L857.8702840909092,336.11446044921877L858.7472727272727,285.7407439453125L858.9226704545455,299.70855712890625L859.2734659090909,294.2267783203125L859.7996590909091,263.30692451171876L861.5536363636363,247.68222578125L862.2552272727273,265.34176728515627L862.430625,307.7260291015625L863.4830113636364,285.68618203125L864.1846022727273,310.76776376953126L864.36,294.6824549804687L865.7631818181819,287.96287177734376L866.1139772727273,314.6962399902344L866.2893750000001,268.85022353515626L866.4647727272727,284.208960546875L866.8155681818182,294.89078061523435L867.3417613636364,291.0646171875L867.517159090909,305.786614453125L867.6925568181819,303.1135776855469L867.8679545454546,257.5387876953125L868.5695454545455,304.08538354492185L868.9203409090909,268.36413652343754L869.446534090909,324.17998056640624L869.6219318181819,276.3818293945312L869.7973295454545,293.79613681640626L869.9727272727273,325.26391079101563L870.3235227272727,300.96764140625L870.849715909091,322.03522241210936L871.0251136363636,285.673075390625L872.0775,288.85117802734374L873.1298863636364,287.36173349609373L873.4806818181818,253.0306923828125L874.006875,260.9883376953125L876.1116477272727,302.27635419921876L876.9886363636364,324.65822568359374" style="fill: none;" fill="none"></path></g></g></g></g></g></g><g transform="translate(68, 377)" clip-path="url(#clip_1)"><clipPath id="clip_1"><rect width="964" height="23"></rect></clipPath><g><g><line x1="0" y1="0" x2="0" y2="5" style="visibility: inherit;" fill="rgb(0, 0, 0)" stroke="rgb(204, 204, 204)" stroke-width="1px"></line><line x1="87.69886363636364" y1="0" x2="87.69886363636364" y2="5" style="visibility: inherit;" fill="rgb(0, 0, 0)" stroke="rgb(204, 204, 204)" stroke-width="1px"></line><line x1="175.39772727272728" y1="0" x2="175.39772727272728" y2="5" style="visibility: inherit;" fill="rgb(0, 0, 0)" stroke="rgb(204, 204, 204)" stroke-width="1px"></line><line x1="263.0965909090909" y1="0" x2="263.0965909090909" y2="5" style="visibility: inherit;" fill="rgb(0, 0, 0)" stroke="rgb(204, 204, 204)" stroke-width="1px"></line><line x1="350.79545454545456" y1="0" x2="350.79545454545456" y2="5" style="visibility: inherit;" fill="rgb(0, 0, 0)" stroke="rgb(204, 204, 204)" stroke-width="1px"></line><line x1="438.4943181818182" y1="0" x2="438.4943181818182" y2="5" style="visibility: inherit;" fill="rgb(0, 0, 0)" stroke="rgb(204, 204, 204)" stroke-width="1px"></line><line x1="526.1931818181818" y1="0" x2="526.1931818181818" y2="5" style="visibility: inherit;" fill="rgb(0, 0, 0)" stroke="rgb(204, 204, 204)" stroke-width="1px"></line><line x1="613.8920454545455" y1="0" x2="613.8920454545455" y2="5" style="visibility: inherit;" fill="rgb(0, 0, 0)" stroke="rgb(204, 204, 204)" stroke-width="1px"></line><line x1="701.5909090909091" y1="0" x2="701.5909090909091" y2="5" style="visibility: inherit;" fill="rgb(0, 0, 0)" stroke="rgb(204, 204, 204)" stroke-width="1px"></line><line x1="789.2897727272727" y1="0" x2="789.2897727272727" y2="5" style="visibility: inherit;" fill="rgb(0, 0, 0)" stroke="rgb(204, 204, 204)" stroke-width="1px"></line><line x1="876.9886363636364" y1="0" x2="876.9886363636364" y2="5" style="visibility: inherit;" fill="rgb(0, 0, 0)" stroke="rgb(204, 204, 204)" stroke-width="1px"></line><line x1="964.6875" y1="0" x2="964.6875" y2="5" style="visibility: inherit;" fill="rgb(0, 0, 0)" stroke="rgb(204, 204, 204)" stroke-width="1px"></line></g><g transform="translate(0, 8)"><text x="0" y="0" dx="0em" dy="0.95em" style="text-anchor: middle; visibility: hidden; font-family: &quot;Helvetica Neue&quot;, sans-serif; font-size: 12px; font-weight: 200;" fill="rgb(50, 49, 63)" stroke="none" stroke-width="1px">0</text><text x="87.69886363636364" y="0" dx="0em" dy="0.95em" style="text-anchor: middle; visibility: inherit; font-family: &quot;Helvetica Neue&quot;, sans-serif; font-size: 12px; font-weight: 200;" fill="rgb(50, 49, 63)" stroke="none" stroke-width="1px">500</text><text x="175.39772727272728" y="0" dx="0em" dy="0.95em" style="text-anchor: middle; visibility: inherit; font-family: &quot;Helvetica Neue&quot;, sans-serif; font-size: 12px; font-weight: 200;" fill="rgb(50, 49, 63)" stroke="none" stroke-width="1px">1k</text><text x="263.0965909090909" y="0" dx="0em" dy="0.95em" style="text-anchor: middle; visibility: inherit; font-family: &quot;Helvetica Neue&quot;, sans-serif; font-size: 12px; font-weight: 200;" fill="rgb(50, 49, 63)" stroke="none" stroke-width="1px">1.5k</text><text x="350.79545454545456" y="0" dx="0em" dy="0.95em" style="text-anchor: middle; visibility: inherit; font-family: &quot;Helvetica Neue&quot;, sans-serif; font-size: 12px; font-weight: 200;" fill="rgb(50, 49, 63)" stroke="none" stroke-width="1px">2k</text><text x="438.4943181818182" y="0" dx="0em" dy="0.95em" style="text-anchor: middle; visibility: inherit; font-family: &quot;Helvetica Neue&quot;, sans-serif; font-size: 12px; font-weight: 200;" fill="rgb(50, 49, 63)" stroke="none" stroke-width="1px">2.5k</text><text x="526.1931818181818" y="0" dx="0em" dy="0.95em" style="text-anchor: middle; visibility: inherit; font-family: &quot;Helvetica Neue&quot;, sans-serif; font-size: 12px; font-weight: 200;" fill="rgb(50, 49, 63)" stroke="none" stroke-width="1px">3k</text><text x="613.8920454545455" y="0" dx="0em" dy="0.95em" style="text-anchor: middle; visibility: inherit; font-family: &quot;Helvetica Neue&quot;, sans-serif; font-size: 12px; font-weight: 200;" fill="rgb(50, 49, 63)" stroke="none" stroke-width="1px">3.5k</text><text x="701.5909090909091" y="0" dx="0em" dy="0.95em" style="text-anchor: middle; visibility: inherit; font-family: &quot;Helvetica Neue&quot;, sans-serif; font-size: 12px; font-weight: 200;" fill="rgb(50, 49, 63)" stroke="none" stroke-width="1px">4k</text><text x="789.2897727272727" y="0" dx="0em" dy="0.95em" style="text-anchor: middle; visibility: inherit; font-family: &quot;Helvetica Neue&quot;, sans-serif; font-size: 12px; font-weight: 200;" fill="rgb(50, 49, 63)" stroke="none" stroke-width="1px">4.5k</text><text x="876.9886363636364" y="0" dx="0em" dy="0.95em" style="text-anchor: middle; visibility: inherit; font-family: &quot;Helvetica Neue&quot;, sans-serif; font-size: 12px; font-weight: 200;" fill="rgb(50, 49, 63)" stroke="none" stroke-width="1px">5k</text><text x="964.6875" y="0" dx="0em" dy="0.95em" style="text-anchor: middle; visibility: hidden; font-family: &quot;Helvetica Neue&quot;, sans-serif; font-size: 12px; font-weight: 200;" fill="rgb(50, 49, 63)" stroke="none" stroke-width="1px">5.5k</text></g><line x1="0" y1="0" x2="964.6875" y2="0" fill="rgb(0, 0, 0)" stroke="rgb(204, 204, 204)" stroke-width="1px"></line></g></g></g></g></svg>